<mxfile host="app.diagrams.net" modified="2021-04-28T14:18:52.675Z" agent="5.0 (Windows NT 10.0; Win64; x64) AppleWebKit/537.36 (KHTML, like Gecko) Chrome/90.0.4430.93 Safari/537.36" etag="p4FZm6N-lMSrY557hfBR" version="14.6.3" type="github">
  <diagram id="Wj443L8Wc6cefYHFC6gn" name="Page-1">
    <mxGraphModel dx="1422" dy="737" grid="1" gridSize="10" guides="1" tooltips="1" connect="1" arrows="1" fold="1" page="1" pageScale="1" pageWidth="850" pageHeight="1100" math="0" shadow="0">
      <root>
        <mxCell id="0" />
        <mxCell id="1" parent="0" />
        <mxCell id="WkrrSZ8HscgqlD9kfg8l-1" value="Quản lí" style="shape=umlActor;verticalLabelPosition=bottom;verticalAlign=top;html=1;outlineConnect=0;" vertex="1" parent="1">
          <mxGeometry x="100" y="300" width="30" height="60" as="geometry" />
        </mxCell>
        <mxCell id="WkrrSZ8HscgqlD9kfg8l-2" value="Xem thống kê" style="ellipse;whiteSpace=wrap;html=1;" vertex="1" parent="1">
          <mxGeometry x="270" y="290" width="120" height="80" as="geometry" />
        </mxCell>
        <mxCell id="WkrrSZ8HscgqlD9kfg8l-3" value="Đăng nhập" style="ellipse;whiteSpace=wrap;html=1;" vertex="1" parent="1">
          <mxGeometry x="520" y="130" width="120" height="80" as="geometry" />
        </mxCell>
        <mxCell id="WkrrSZ8HscgqlD9kfg8l-4" value="Thống kê tour theo doanh thu" style="ellipse;whiteSpace=wrap;html=1;" vertex="1" parent="1">
          <mxGeometry x="530" y="290" width="120" height="80" as="geometry" />
        </mxCell>
        <mxCell id="WkrrSZ8HscgqlD9kfg8l-5" value="Xem chi tiết liên quan 1 tour" style="ellipse;whiteSpace=wrap;html=1;" vertex="1" parent="1">
          <mxGeometry x="490" y="430" width="120" height="80" as="geometry" />
        </mxCell>
        <mxCell id="WkrrSZ8HscgqlD9kfg8l-6" value="Xem chi tiết các hóa đơn của 1 tour" style="ellipse;whiteSpace=wrap;html=1;" vertex="1" parent="1">
          <mxGeometry x="700" y="430" width="120" height="80" as="geometry" />
        </mxCell>
        <mxCell id="WkrrSZ8HscgqlD9kfg8l-7" value="" style="endArrow=none;html=1;" edge="1" parent="1" source="WkrrSZ8HscgqlD9kfg8l-1">
          <mxGeometry width="50" height="50" relative="1" as="geometry">
            <mxPoint x="400" y="380" as="sourcePoint" />
            <mxPoint x="270" y="330" as="targetPoint" />
          </mxGeometry>
        </mxCell>
        <mxCell id="WkrrSZ8HscgqlD9kfg8l-8" value="" style="endArrow=classic;html=1;exitX=0.75;exitY=0;exitDx=0;exitDy=0;exitPerimeter=0;entryX=0;entryY=0.7;entryDx=0;entryDy=0;entryPerimeter=0;dashed=1;" edge="1" parent="1" source="WkrrSZ8HscgqlD9kfg8l-2" target="WkrrSZ8HscgqlD9kfg8l-3">
          <mxGeometry width="50" height="50" relative="1" as="geometry">
            <mxPoint x="430" y="250" as="sourcePoint" />
            <mxPoint x="480" y="200" as="targetPoint" />
          </mxGeometry>
        </mxCell>
        <mxCell id="WkrrSZ8HscgqlD9kfg8l-9" value="&amp;lt;include&amp;gt;" style="text;html=1;strokeColor=none;fillColor=none;align=center;verticalAlign=middle;whiteSpace=wrap;rounded=0;rotation=-30;" vertex="1" parent="1">
          <mxGeometry x="410" y="210" width="40" height="20" as="geometry" />
        </mxCell>
        <mxCell id="WkrrSZ8HscgqlD9kfg8l-10" value="" style="endArrow=classic;html=1;dashed=1;exitX=0.033;exitY=0.65;exitDx=0;exitDy=0;exitPerimeter=0;entryX=1.025;entryY=0.613;entryDx=0;entryDy=0;entryPerimeter=0;" edge="1" parent="1" source="WkrrSZ8HscgqlD9kfg8l-4" target="WkrrSZ8HscgqlD9kfg8l-2">
          <mxGeometry width="50" height="50" relative="1" as="geometry">
            <mxPoint x="430" y="350" as="sourcePoint" />
            <mxPoint x="480" y="300" as="targetPoint" />
          </mxGeometry>
        </mxCell>
        <mxCell id="WkrrSZ8HscgqlD9kfg8l-11" value="&amp;lt;extend&amp;gt;" style="text;html=1;strokeColor=none;fillColor=none;align=center;verticalAlign=middle;whiteSpace=wrap;rounded=0;" vertex="1" parent="1">
          <mxGeometry x="450" y="310" width="40" height="20" as="geometry" />
        </mxCell>
        <mxCell id="WkrrSZ8HscgqlD9kfg8l-12" value="" style="endArrow=classic;html=1;dashed=1;entryX=0.5;entryY=1;entryDx=0;entryDy=0;exitX=0.558;exitY=-0.025;exitDx=0;exitDy=0;exitPerimeter=0;" edge="1" parent="1" source="WkrrSZ8HscgqlD9kfg8l-5" target="WkrrSZ8HscgqlD9kfg8l-4">
          <mxGeometry width="50" height="50" relative="1" as="geometry">
            <mxPoint x="590" y="440" as="sourcePoint" />
            <mxPoint x="640" y="390" as="targetPoint" />
          </mxGeometry>
        </mxCell>
        <mxCell id="WkrrSZ8HscgqlD9kfg8l-13" value="&amp;lt;extend&amp;gt;" style="text;html=1;strokeColor=none;fillColor=none;align=center;verticalAlign=middle;whiteSpace=wrap;rounded=0;rotation=-60;" vertex="1" parent="1">
          <mxGeometry x="530" y="390" width="40" height="20" as="geometry" />
        </mxCell>
        <mxCell id="WkrrSZ8HscgqlD9kfg8l-14" value="" style="endArrow=classic;html=1;dashed=1;entryX=0.942;entryY=0.775;entryDx=0;entryDy=0;entryPerimeter=0;exitX=0.35;exitY=0.038;exitDx=0;exitDy=0;exitPerimeter=0;" edge="1" parent="1" source="WkrrSZ8HscgqlD9kfg8l-6" target="WkrrSZ8HscgqlD9kfg8l-4">
          <mxGeometry width="50" height="50" relative="1" as="geometry">
            <mxPoint x="670" y="420" as="sourcePoint" />
            <mxPoint x="720" y="370" as="targetPoint" />
          </mxGeometry>
        </mxCell>
        <mxCell id="WkrrSZ8HscgqlD9kfg8l-15" value="&amp;lt;extend&amp;gt;" style="text;html=1;strokeColor=none;fillColor=none;align=center;verticalAlign=middle;whiteSpace=wrap;rounded=0;rotation=30;" vertex="1" parent="1">
          <mxGeometry x="680" y="360" width="40" height="20" as="geometry" />
        </mxCell>
      </root>
    </mxGraphModel>
  </diagram>
</mxfile>
